<mxfile host="app.diagrams.net" modified="2024-01-17T21:13:09.074Z" agent="Mozilla/5.0 (Macintosh; Intel Mac OS X 10_15_7) AppleWebKit/537.36 (KHTML, like Gecko) Chrome/120.0.0.0 Safari/537.36" etag="m9mPC5Apl0zgKaMSXEWH" version="22.1.18" type="device">
  <diagram id="C5RBs43oDa-KdzZeNtuy" name="Page-1">
    <mxGraphModel dx="477" dy="303" grid="1" gridSize="10" guides="1" tooltips="1" connect="1" arrows="1" fold="1" page="1" pageScale="1" pageWidth="827" pageHeight="1169" math="0" shadow="0">
      <root>
        <mxCell id="WIyWlLk6GJQsqaUBKTNV-0" />
        <mxCell id="WIyWlLk6GJQsqaUBKTNV-1" parent="WIyWlLk6GJQsqaUBKTNV-0" />
        <mxCell id="iyH_EipeMZXM0Fu82atl-0" value="" style="ellipse;whiteSpace=wrap;html=1;" parent="WIyWlLk6GJQsqaUBKTNV-1" vertex="1">
          <mxGeometry x="270" y="90" width="120" height="120" as="geometry" />
        </mxCell>
        <mxCell id="iyH_EipeMZXM0Fu82atl-1" value="&lt;font style=&quot;font-size: 19px;&quot;&gt;System Off&lt;/font&gt;" style="text;html=1;strokeColor=none;fillColor=none;align=center;verticalAlign=middle;whiteSpace=wrap;rounded=0;" parent="WIyWlLk6GJQsqaUBKTNV-1" vertex="1">
          <mxGeometry x="295" y="110" width="70" height="30" as="geometry" />
        </mxCell>
        <mxCell id="iyH_EipeMZXM0Fu82atl-2" value="" style="ellipse;whiteSpace=wrap;html=1;aspect=fixed;fillColor=none;strokeColor=#3399FF;fontColor=#000000;" parent="WIyWlLk6GJQsqaUBKTNV-1" vertex="1">
          <mxGeometry x="277.5" y="147.5" width="37.5" height="37.5" as="geometry" />
        </mxCell>
        <mxCell id="iyH_EipeMZXM0Fu82atl-3" value="OFF" style="text;html=1;strokeColor=none;fillColor=none;align=center;verticalAlign=middle;whiteSpace=wrap;rounded=0;" parent="WIyWlLk6GJQsqaUBKTNV-1" vertex="1">
          <mxGeometry x="281.25" y="158.75" width="30" height="15" as="geometry" />
        </mxCell>
        <mxCell id="iyH_EipeMZXM0Fu82atl-4" value="" style="ellipse;whiteSpace=wrap;html=1;aspect=fixed;fillColor=none;strokeColor=#3399FF;" parent="WIyWlLk6GJQsqaUBKTNV-1" vertex="1">
          <mxGeometry x="345" y="147.5" width="37.5" height="37.5" as="geometry" />
        </mxCell>
        <mxCell id="iyH_EipeMZXM0Fu82atl-5" value="OFF" style="text;html=1;align=center;verticalAlign=middle;whiteSpace=wrap;rounded=0;fontColor=#000000;" parent="WIyWlLk6GJQsqaUBKTNV-1" vertex="1">
          <mxGeometry x="348.75" y="156.25" width="30" height="20" as="geometry" />
        </mxCell>
        <mxCell id="iyH_EipeMZXM0Fu82atl-6" value="" style="ellipse;whiteSpace=wrap;html=1;" parent="WIyWlLk6GJQsqaUBKTNV-1" vertex="1">
          <mxGeometry x="460" y="230" width="120" height="120" as="geometry" />
        </mxCell>
        <mxCell id="iyH_EipeMZXM0Fu82atl-7" value="&lt;font style=&quot;font-size: 19px;&quot;&gt;Worker mode&lt;/font&gt;" style="text;html=1;strokeColor=none;fillColor=none;align=center;verticalAlign=middle;whiteSpace=wrap;rounded=0;" parent="WIyWlLk6GJQsqaUBKTNV-1" vertex="1">
          <mxGeometry x="485" y="250" width="70" height="30" as="geometry" />
        </mxCell>
        <mxCell id="iyH_EipeMZXM0Fu82atl-12" value="" style="endArrow=classic;html=1;rounded=0;fontSize=21;horizontal=1;entryX=0.083;entryY=0.167;entryDx=0;entryDy=0;entryPerimeter=0;fillColor=#66B2FF;fontColor=#007FFF;strokeWidth=2;strokeColor=#0066CC;" parent="WIyWlLk6GJQsqaUBKTNV-1" source="iyH_EipeMZXM0Fu82atl-0" target="iyH_EipeMZXM0Fu82atl-6" edge="1">
          <mxGeometry width="50" height="50" relative="1" as="geometry">
            <mxPoint x="410" y="290" as="sourcePoint" />
            <mxPoint x="450" y="240" as="targetPoint" />
          </mxGeometry>
        </mxCell>
        <mxCell id="iyH_EipeMZXM0Fu82atl-13" value="System button" style="text;html=1;strokeColor=none;fillColor=none;align=center;verticalAlign=middle;whiteSpace=wrap;rounded=0;rotation=35;" parent="WIyWlLk6GJQsqaUBKTNV-1" vertex="1">
          <mxGeometry x="410" y="190" width="60" height="30" as="geometry" />
        </mxCell>
        <mxCell id="iyH_EipeMZXM0Fu82atl-14" value="" style="curved=1;endArrow=classic;html=1;rounded=0;exitX=0.641;exitY=0.004;exitDx=0;exitDy=0;exitPerimeter=0;entryX=1;entryY=0.333;entryDx=0;entryDy=0;entryPerimeter=0;strokeWidth=2;strokeColor=#0066CC;" parent="WIyWlLk6GJQsqaUBKTNV-1" source="iyH_EipeMZXM0Fu82atl-6" target="iyH_EipeMZXM0Fu82atl-0" edge="1">
          <mxGeometry width="50" height="50" relative="1" as="geometry">
            <mxPoint x="490" y="200" as="sourcePoint" />
            <mxPoint x="540" y="150" as="targetPoint" />
            <Array as="points">
              <mxPoint x="540" y="200" />
              <mxPoint x="530" y="170" />
              <mxPoint x="500" y="150" />
            </Array>
          </mxGeometry>
        </mxCell>
        <mxCell id="iyH_EipeMZXM0Fu82atl-15" value="System button" style="text;html=1;strokeColor=none;fillColor=none;align=center;verticalAlign=middle;whiteSpace=wrap;rounded=0;rotation=15;" parent="WIyWlLk6GJQsqaUBKTNV-1" vertex="1">
          <mxGeometry x="440" y="110" width="60" height="30" as="geometry" />
        </mxCell>
        <mxCell id="iyH_EipeMZXM0Fu82atl-25" value="" style="ellipse;whiteSpace=wrap;html=1;" parent="WIyWlLk6GJQsqaUBKTNV-1" vertex="1">
          <mxGeometry x="110" y="317.5" width="120" height="120" as="geometry" />
        </mxCell>
        <mxCell id="iyH_EipeMZXM0Fu82atl-26" value="&lt;font style=&quot;font-size: 19px;&quot;&gt;Plant mode&lt;/font&gt;" style="text;html=1;strokeColor=none;fillColor=none;align=center;verticalAlign=middle;whiteSpace=wrap;rounded=0;" parent="WIyWlLk6GJQsqaUBKTNV-1" vertex="1">
          <mxGeometry x="135" y="337.5" width="70" height="30" as="geometry" />
        </mxCell>
        <mxCell id="iyH_EipeMZXM0Fu82atl-31" value="" style="endArrow=classic;html=1;rounded=0;fontSize=21;horizontal=1;entryX=0.398;entryY=0.996;entryDx=0;entryDy=0;entryPerimeter=0;fillColor=#66B2FF;fontColor=#007FFF;strokeWidth=2;strokeColor=#0066CC;exitX=0.674;exitY=-0.014;exitDx=0;exitDy=0;exitPerimeter=0;" parent="WIyWlLk6GJQsqaUBKTNV-1" source="iyH_EipeMZXM0Fu82atl-25" target="iyH_EipeMZXM0Fu82atl-0" edge="1">
          <mxGeometry width="50" height="50" relative="1" as="geometry">
            <mxPoint x="389" y="195" as="sourcePoint" />
            <mxPoint x="480" y="260" as="targetPoint" />
          </mxGeometry>
        </mxCell>
        <mxCell id="iyH_EipeMZXM0Fu82atl-33" value="System button" style="text;html=1;strokeColor=none;fillColor=none;align=center;verticalAlign=middle;whiteSpace=wrap;rounded=0;rotation=-40;" parent="WIyWlLk6GJQsqaUBKTNV-1" vertex="1">
          <mxGeometry x="210" y="230" width="60" height="30" as="geometry" />
        </mxCell>
        <mxCell id="iyH_EipeMZXM0Fu82atl-35" value="" style="endArrow=classic;html=1;rounded=0;fontSize=21;horizontal=1;entryX=-0.003;entryY=0.543;entryDx=0;entryDy=0;entryPerimeter=0;fillColor=#66B2FF;fontColor=#007FFF;strokeWidth=2;strokeColor=#00CC00;exitX=0.919;exitY=0.189;exitDx=0;exitDy=0;exitPerimeter=0;" parent="WIyWlLk6GJQsqaUBKTNV-1" source="iyH_EipeMZXM0Fu82atl-25" target="iyH_EipeMZXM0Fu82atl-6" edge="1">
          <mxGeometry width="50" height="50" relative="1" as="geometry">
            <mxPoint x="236.5" y="356" as="sourcePoint" />
            <mxPoint x="363.5" y="250" as="targetPoint" />
          </mxGeometry>
        </mxCell>
        <mxCell id="iyH_EipeMZXM0Fu82atl-36" value="Worker&amp;nbsp;&lt;br&gt;button" style="text;html=1;strokeColor=none;fillColor=none;align=center;verticalAlign=middle;whiteSpace=wrap;rounded=0;rotation=-10;" parent="WIyWlLk6GJQsqaUBKTNV-1" vertex="1">
          <mxGeometry x="330" y="280" width="60" height="30" as="geometry" />
        </mxCell>
        <mxCell id="iyH_EipeMZXM0Fu82atl-37" value="" style="endArrow=classic;html=1;rounded=0;fontSize=21;horizontal=1;entryX=1;entryY=0.813;entryDx=0;entryDy=0;entryPerimeter=0;fillColor=#66B2FF;fontColor=#007FFF;strokeWidth=2;strokeColor=#00CC00;exitX=0.341;exitY=0.986;exitDx=0;exitDy=0;exitPerimeter=0;" parent="WIyWlLk6GJQsqaUBKTNV-1" source="iyH_EipeMZXM0Fu82atl-6" edge="1">
          <mxGeometry width="50" height="50" relative="1" as="geometry">
            <mxPoint x="235" y="382.5" as="sourcePoint" />
            <mxPoint x="220" y="410.02" as="targetPoint" />
          </mxGeometry>
        </mxCell>
        <mxCell id="iyH_EipeMZXM0Fu82atl-38" value="Worker&amp;nbsp;&lt;br&gt;button" style="text;html=1;strokeColor=none;fillColor=none;align=center;verticalAlign=middle;whiteSpace=wrap;rounded=0;rotation=-10;" parent="WIyWlLk6GJQsqaUBKTNV-1" vertex="1">
          <mxGeometry x="330" y="350" width="60" height="30" as="geometry" />
        </mxCell>
        <mxCell id="3Iq2bgIuKtoezMFsLz0R-0" value="" style="ellipse;whiteSpace=wrap;html=1;aspect=fixed;fillColor=none;strokeColor=#3399FF;" vertex="1" parent="WIyWlLk6GJQsqaUBKTNV-1">
          <mxGeometry x="311.25" y="168.75" width="37.5" height="37.5" as="geometry" />
        </mxCell>
        <mxCell id="3Iq2bgIuKtoezMFsLz0R-1" value="OFF" style="text;html=1;align=center;verticalAlign=middle;whiteSpace=wrap;rounded=0;fontColor=#000000;" vertex="1" parent="WIyWlLk6GJQsqaUBKTNV-1">
          <mxGeometry x="315" y="177.5" width="30" height="20" as="geometry" />
        </mxCell>
        <mxCell id="3Iq2bgIuKtoezMFsLz0R-9" value="" style="ellipse;whiteSpace=wrap;html=1;aspect=fixed;fillColor=#FF3333;strokeColor=#3399FF;fontColor=#000000;" vertex="1" parent="WIyWlLk6GJQsqaUBKTNV-1">
          <mxGeometry x="469" y="288" width="37.5" height="37.5" as="geometry" />
        </mxCell>
        <mxCell id="3Iq2bgIuKtoezMFsLz0R-10" value="ON" style="text;html=1;strokeColor=none;fillColor=none;align=center;verticalAlign=middle;whiteSpace=wrap;rounded=0;" vertex="1" parent="WIyWlLk6GJQsqaUBKTNV-1">
          <mxGeometry x="472.75" y="299.25" width="30" height="15" as="geometry" />
        </mxCell>
        <mxCell id="3Iq2bgIuKtoezMFsLz0R-11" value="" style="ellipse;whiteSpace=wrap;html=1;aspect=fixed;fillColor=#007FFF;strokeColor=#3399FF;" vertex="1" parent="WIyWlLk6GJQsqaUBKTNV-1">
          <mxGeometry x="536.5" y="288" width="37.5" height="37.5" as="geometry" />
        </mxCell>
        <mxCell id="3Iq2bgIuKtoezMFsLz0R-12" value="ON" style="text;html=1;align=center;verticalAlign=middle;whiteSpace=wrap;rounded=0;fontColor=#000000;" vertex="1" parent="WIyWlLk6GJQsqaUBKTNV-1">
          <mxGeometry x="540.25" y="296.75" width="30" height="20" as="geometry" />
        </mxCell>
        <mxCell id="3Iq2bgIuKtoezMFsLz0R-13" value="" style="ellipse;whiteSpace=wrap;html=1;aspect=fixed;fillColor=#00CC00;strokeColor=#3399FF;" vertex="1" parent="WIyWlLk6GJQsqaUBKTNV-1">
          <mxGeometry x="502.75" y="309.25" width="37.5" height="37.5" as="geometry" />
        </mxCell>
        <mxCell id="3Iq2bgIuKtoezMFsLz0R-14" value="ON" style="text;html=1;align=center;verticalAlign=middle;whiteSpace=wrap;rounded=0;fontColor=#000000;" vertex="1" parent="WIyWlLk6GJQsqaUBKTNV-1">
          <mxGeometry x="506.5" y="318" width="30" height="20" as="geometry" />
        </mxCell>
        <mxCell id="3Iq2bgIuKtoezMFsLz0R-15" value="" style="ellipse;whiteSpace=wrap;html=1;aspect=fixed;fillColor=#FF3333;strokeColor=#3399FF;fontColor=#000000;" vertex="1" parent="WIyWlLk6GJQsqaUBKTNV-1">
          <mxGeometry x="118" y="375" width="37.5" height="37.5" as="geometry" />
        </mxCell>
        <mxCell id="3Iq2bgIuKtoezMFsLz0R-16" value="ON" style="text;html=1;strokeColor=none;fillColor=none;align=center;verticalAlign=middle;whiteSpace=wrap;rounded=0;" vertex="1" parent="WIyWlLk6GJQsqaUBKTNV-1">
          <mxGeometry x="121.75" y="386.25" width="30" height="15" as="geometry" />
        </mxCell>
        <mxCell id="3Iq2bgIuKtoezMFsLz0R-17" value="" style="ellipse;whiteSpace=wrap;html=1;aspect=fixed;fillColor=#007FFF;strokeColor=#3399FF;" vertex="1" parent="WIyWlLk6GJQsqaUBKTNV-1">
          <mxGeometry x="185.5" y="375" width="37.5" height="37.5" as="geometry" />
        </mxCell>
        <mxCell id="3Iq2bgIuKtoezMFsLz0R-18" value="ON" style="text;html=1;align=center;verticalAlign=middle;whiteSpace=wrap;rounded=0;fontColor=#000000;" vertex="1" parent="WIyWlLk6GJQsqaUBKTNV-1">
          <mxGeometry x="189.25" y="383.75" width="30" height="20" as="geometry" />
        </mxCell>
        <mxCell id="3Iq2bgIuKtoezMFsLz0R-19" value="" style="ellipse;whiteSpace=wrap;html=1;aspect=fixed;fillColor=none;strokeColor=#3399FF;" vertex="1" parent="WIyWlLk6GJQsqaUBKTNV-1">
          <mxGeometry x="151.75" y="396.25" width="37.5" height="37.5" as="geometry" />
        </mxCell>
        <mxCell id="3Iq2bgIuKtoezMFsLz0R-20" value="OFF" style="text;html=1;align=center;verticalAlign=middle;whiteSpace=wrap;rounded=0;fontColor=#000000;" vertex="1" parent="WIyWlLk6GJQsqaUBKTNV-1">
          <mxGeometry x="155.5" y="405" width="30" height="20" as="geometry" />
        </mxCell>
      </root>
    </mxGraphModel>
  </diagram>
</mxfile>
